<svg xmlns="http://www.w3.org/2000/svg" width="22" height="24" viewBox="0 0 22 24" fill="none">
  <g clip-path="url(#clip0_100_3655)">
    <path d="M1.90775 22.6562C3.47471 24.2331 5.50373 24.2533 7.05061 22.7064C8.28611 21.4709 9.48144 18.6785 10.3955 17.2823L12.8263 19.7231C13.5696 20.4765 14.4736 20.4765 15.1767 19.7533L16.0406 18.8895C16.7738 18.1461 16.7638 17.3024 16.0105 16.549L8.02494 8.55349C7.26155 7.80015 6.40775 7.7901 5.67449 8.52336L4.81066 9.38717C4.08744 10.1104 4.08744 10.9843 4.84079 11.7376L7.27159 14.1685C5.88543 15.0825 3.10307 16.2778 1.85753 17.5133C0.320701 19.0602 0.330745 21.0993 1.90775 22.6562ZM4.58968 21.3504C3.89659 21.3504 3.34414 20.7879 3.34414 20.1048C3.34414 19.4218 3.89659 18.8693 4.58968 18.8693C5.27271 18.8693 5.82516 19.4218 5.82516 20.1048C5.82516 20.7879 5.27271 21.3504 4.58968 21.3504ZM17.2058 16.0869L21.1031 12.1897C22.218 11.0747 22.1879 9.7488 21.0529 8.59363L20.5406 8.07135C19.496 9.42737 16.5127 11.0145 15.9401 10.4419C15.8498 10.3515 15.8396 10.1707 15.9703 10.03C17.1856 8.81469 17.9792 7.62939 18.16 5.70082L12.997 0.527821C12.0428 -0.42642 10.3855 -0.115036 9.93341 1.693C9.30059 4.26443 8.72807 5.76108 8.1053 6.99658L17.2058 16.0869Z" fill="#9EFF00"/>
  </g>
  <defs>
    <clipPath id="clip0_100_3655">
      <rect width="21.2072" height="24.0076" fill="white" transform="translate(0.714844)"/>
    </clipPath>
  </defs>
</svg>