<svg xmlns="http://www.w3.org/2000/svg" width="21" height="22" viewBox="0 0 21 22" fill="none">
  <path d="M11.0289 2.91083C11.4867 2.91083 11.8351 2.56245 11.8351 2.10459C11.8351 1.65668 11.4867 1.3083 11.0289 1.3083H3.74284L5.32546 2.91083H11.0289ZM13.8258 5.75755C14.2737 5.75755 14.6321 5.39923 14.6321 4.94136C14.6321 4.49345 14.2737 4.15502 13.8258 4.15502H6.51989L8.10251 5.75755H13.8258ZM16.563 8.59432C17.011 8.59432 17.3594 8.236 17.3594 7.77814C17.3594 7.33022 17.011 6.9918 16.563 6.9918H9.29698L10.8795 8.59432H16.563ZM19.3302 9.82861H12.074C12.6712 10.4357 12.9399 10.804 12.9798 11.4311H19.3302C19.7781 11.4311 20.1364 11.0827 20.1364 10.6249C20.1364 10.1769 19.7781 9.82861 19.3302 9.82861ZM10.1231 19.6627L6.54976 11.3117L6.07199 12.1279L11.0289 12.4065C11.6958 12.4464 12.0143 11.7297 11.5365 11.242L1.68245 1.16895C1.24449 0.721036 0.567649 0.969877 0.567649 1.59695L0.398438 15.6116C0.398438 16.2984 1.16486 16.5771 1.60282 16.0695L4.80788 12.526L3.88219 12.2871L7.33609 20.8273C7.47544 21.1657 7.82382 21.325 8.13238 21.1857L9.8444 20.4789C10.1629 20.3595 10.2724 19.9912 10.1231 19.6627Z" fill="#9EFF00"/>
</svg>