<svg xmlns="http://www.w3.org/2000/svg" width="17" height="23" viewBox="0 0 17 23" fill="none">
  <path d="M5.62637 18.7085H14.2799C15.9568 18.7085 16.7953 17.8619 16.7953 16.1524V6.27779C16.7953 4.5764 15.9568 3.72164 14.2799 3.72164H6.48928L7.82436 5.03228H14.2066C15.0532 5.03228 15.4847 5.48001 15.4847 6.29408V16.1361C15.4847 16.9502 15.0532 17.3979 14.2147 17.3979H5.6915C4.85301 17.3979 4.41342 16.9502 4.41342 16.1361V10.3237H3.10278V16.1524C3.10278 17.8619 3.9494 18.7085 5.62637 18.7085ZM6.86375 8.52463H12.8553C13.1402 8.52463 13.36 8.30484 13.36 8.01989C13.36 7.74313 13.1402 7.52334 12.8553 7.52334H6.86375C6.56255 7.52334 6.35089 7.74313 6.35089 8.01989C6.35089 8.30484 6.56255 8.52463 6.86375 8.52463ZM6.86375 11.7157H12.8553C13.1402 11.7157 13.36 11.4878 13.36 11.2029C13.36 10.9261 13.1402 10.7144 12.8553 10.7144H6.86375C6.56255 10.7144 6.35089 10.9261 6.35089 11.2029C6.35089 11.4878 6.56255 11.7157 6.86375 11.7157ZM6.86375 14.8987H12.8553C13.1402 14.8987 13.36 14.6871 13.36 14.4103C13.36 14.1254 13.1402 13.8974 12.8553 13.8974H6.86375C6.56255 13.8974 6.35089 14.1254 6.35089 14.4103C6.35089 14.6871 6.56255 14.8987 6.86375 14.8987ZM0.750131 7.01859C0.74199 7.32793 1.11646 7.4338 1.31997 7.23026L2.56549 5.98474L3.95754 9.42006C4.02267 9.57476 4.18548 9.64805 4.33201 9.59102L5.14607 9.26543C5.28446 9.20027 5.34145 9.02931 5.26818 8.87468L3.81101 5.49629L5.56125 5.42303C5.87059 5.40674 6.02526 5.11369 5.80546 4.87761L1.35254 0.302573C1.14902 0.099057 0.831537 0.213026 0.823396 0.514229L0.750131 7.01859Z" fill="#9EFF00"/>
</svg>