<svg xmlns="http://www.w3.org/2000/svg" width="40" height="32" viewBox="0 0 40 32" fill="none">
  <g clip-path="url(#clip0_77_29561)">
    <path d="M5.99455 15.0495C6.35955 15.0074 6.7386 14.9793 7.10361 14.9793C7.49669 14.9793 7.87574 15.0074 8.25478 15.0635V12.0031H5.99455V15.0495ZM5.99455 10.0798H8.25478V7.14571C8.25478 5.68569 9.02692 4.94164 10.4308 4.94164H13.3368V2.6814H10.4027C7.46862 2.6814 5.99455 4.12739 5.99455 7.0334V10.0798ZM15.2601 4.94164H21.5915V2.6814H15.2601V4.94164ZM23.5009 4.94164H29.8323V2.6814H23.5009V4.94164ZM39.0979 10.0798V7.0334C39.0979 4.12739 37.6238 2.6814 34.6897 2.6814H31.7556V4.94164H34.6617C36.0656 4.94164 36.8377 5.68569 36.8377 7.14571V10.0798H39.0979ZM39.0979 19.2049V12.0031H36.8377V19.2049H39.0979ZM34.6897 28.5267C37.6238 28.5267 39.0979 27.0808 39.0979 24.1747V21.1283H36.8377V24.0624C36.8377 25.5225 36.0656 26.2665 34.6617 26.2665H31.7556V28.5267H34.6897ZM23.5009 28.5267H29.8323V26.2665H23.5009V28.5267ZM14.9793 28.5127L21.5915 28.5267V26.2665H15.8638C15.6812 27.0668 15.3865 27.8107 14.9793 28.5127ZM7.13168 31.18C11.0345 31.18 14.2633 27.9511 14.2633 24.0483C14.2633 20.1596 11.0204 16.9167 7.11765 16.9167C3.22891 16.9167 0 20.1596 0 24.0483C0 27.9511 3.24295 31.18 7.13168 31.18ZM7.13168 29.4954C4.11335 29.4954 1.69869 27.0668 1.69869 24.0483C1.69869 21.0441 4.11335 18.6013 7.11765 18.6013C10.136 18.6013 12.5647 21.0441 12.5787 24.0483C12.5927 27.0668 10.136 29.4954 7.13168 29.4954ZM7.11765 28.2741C9.44808 28.2741 11.3433 26.3647 11.3433 24.0624C11.3433 21.746 9.43404 19.8368 7.11765 19.8368C4.80125 19.8368 2.90602 21.746 2.90602 24.0624C2.90602 26.3647 4.81529 28.2741 7.11765 28.2741Z" fill="#9EFF00"/>
  </g>
  <defs>
    <clipPath id="clip0_77_29561">
      <rect width="39.0979" height="31.18" fill="white"/>
    </clipPath>
  </defs>
</svg>