<svg xmlns="http://www.w3.org/2000/svg" width="72" height="14" viewBox="0 0 72 14" fill="none">
  <path d="M4.07121 0.333252C6.09178 0.333252 7.62207 1.43268 8.00835 3.20068L5.98778 3.61668C5.83921 2.68068 5.02207 2.07154 4.02664 2.07154C3.01635 2.07154 2.40721 2.63611 2.40721 3.30468C2.40721 3.80982 2.63006 4.1664 3.40264 4.31497L5.54207 4.74582C7.16149 5.08754 8.15692 6.05325 8.15692 7.5984C8.15692 9.52982 6.56721 10.7333 4.20492 10.7333C2.12492 10.7333 0.297493 9.76754 0.0449219 7.77668L2.16949 7.34582C2.43692 8.47497 3.26892 8.96525 4.39807 8.96525C5.55692 8.96525 6.16606 8.41554 6.16606 7.7024C6.16606 7.13782 5.89864 6.79611 5.00721 6.61782L2.89749 6.21668C1.70892 5.96411 0.282636 5.3104 0.282636 3.36411C0.282636 1.58125 1.73864 0.333252 4.07121 0.333252Z" fill="white"/>
  <path d="M17.3925 3.09668V13.0361H15.4314V9.93097C14.8074 10.4361 13.9902 10.7333 12.9799 10.7333C11.0931 10.7333 9.33992 9.14354 9.33992 6.81097C9.33992 4.47839 11.0931 2.87382 12.9799 2.87382C13.9902 2.87382 14.8074 3.17097 15.4314 3.69097V3.09668H17.3925ZM13.3216 9.02468C14.3765 9.02468 15.4314 8.17782 15.4314 6.81097C15.4314 5.44411 14.3765 4.5824 13.3216 4.5824C12.1331 4.5824 11.2416 5.44411 11.2416 6.81097C11.2416 8.17782 12.1331 9.02468 13.3216 9.02468Z" fill="white"/>
  <path d="M26.466 3.09668V10.5104H24.5049V9.84182C23.9255 10.4213 23.1529 10.7333 22.1723 10.7333C20.3895 10.7333 19.2009 9.45554 19.2009 7.61325V3.09668H21.162V7.19725C21.162 8.23725 21.7563 8.93554 22.6626 8.93554C23.7769 8.93554 24.5049 8.19268 24.5049 6.38011V3.09668H26.466Z" fill="white"/>
  <path d="M36.0075 3.09668V10.5104H34.0463V9.93097C33.4223 10.4361 32.6052 10.7333 31.5949 10.7333C29.708 10.7333 27.9549 9.14354 27.9549 6.81097C27.9549 4.47839 29.708 2.87382 31.5949 2.87382C32.6052 2.87382 33.4223 3.17097 34.0463 3.69097V3.09668H36.0075ZM31.9366 9.02468C32.9915 9.02468 34.0463 8.17782 34.0463 6.81097C34.0463 5.44411 32.9915 4.5824 31.9366 4.5824C30.748 4.5824 29.8566 5.44411 29.8566 6.81097C29.8566 8.17782 30.748 9.02468 31.9366 9.02468Z" fill="white"/>
  <path d="M42.7021 2.99268C42.8952 2.99268 43.0438 2.99268 43.2221 3.05211L43.1181 4.93897H42.6872C40.8747 4.93897 40.0427 6.05325 40.0427 8.1184V10.5104H38.0815V3.09668H40.0427V4.44868C40.637 3.58697 41.4987 2.99268 42.7021 2.99268Z" fill="white"/>
  <path d="M51.3761 6.6624V7.33097H45.7304C45.9235 8.40068 46.6813 9.0544 47.5875 9.0544C48.167 9.0544 48.895 8.98011 49.4298 8.07382L51.183 8.44525C50.5293 9.9904 49.207 10.7333 47.5875 10.7333C45.4927 10.7333 43.7841 9.14354 43.7841 6.81097C43.7841 4.47839 45.4927 2.87382 47.6173 2.87382C49.5933 2.87382 51.3018 4.40411 51.3761 6.6624ZM47.6173 4.5824C46.8744 4.5824 46.0275 5.02811 45.7898 5.94925H49.3704C49.1178 4.9984 48.4047 4.5824 47.6173 4.5824Z" fill="white"/>
  <path d="M61.4387 0.55611V6.05325C61.4387 8.8464 59.7301 10.7333 57.1598 10.7333C54.5301 10.7333 52.777 8.8464 52.777 6.05325V0.55611H54.7976V6.05325C54.7976 7.71725 55.7336 8.80182 57.1598 8.80182C58.5118 8.80182 59.4181 7.71725 59.4181 6.05325V0.55611H61.4387Z" fill="white"/>
  <path d="M67.8412 2.87382C69.7281 2.87382 71.4812 4.47839 71.4812 6.81097C71.4812 9.14354 69.7281 10.7333 67.8412 10.7333C66.8309 10.7333 66.0138 10.4361 65.3898 9.93097V13.0361H63.4286V3.09668H65.3898V3.69097C66.0138 3.17097 66.8309 2.87382 67.8412 2.87382ZM67.4995 9.02468C68.6881 9.02468 69.5795 8.17782 69.5795 6.81097C69.5795 5.44411 68.6881 4.5824 67.4995 4.5824C66.4446 4.5824 65.3898 5.44411 65.3898 6.81097C65.3898 8.17782 66.4446 9.02468 67.4995 9.02468Z" fill="white"/>
</svg>