<svg xmlns="http://www.w3.org/2000/svg" width="20" height="20" viewBox="0 0 20 20" fill="none">
  <path d="M0.571289 5.99554C0.571289 6.87948 1.51548 7.10046 2.07798 6.52792L6.52776 2.07814C7.11035 1.50559 6.87933 0.571442 5.99539 0.571442H1.48535C0.922851 0.571442 0.571289 0.953138 0.571289 1.49554V5.99554ZM3.16281 4.42858L15.8894 17.1652L17.1651 15.9096L4.43848 3.16296L3.16281 4.42858ZM19.7666 14.3426C19.7666 13.4486 18.8224 13.2377 18.2499 13.8002L13.8001 18.25C13.2275 18.8326 13.4586 19.7667 14.3425 19.7667H18.8525C19.4151 19.7667 19.7666 19.375 19.7666 18.8426V14.3426ZM19.7666 5.99554V1.49554C19.7666 0.953138 19.4151 0.571442 18.8525 0.571442H14.3425C13.4586 0.571442 13.2275 1.50559 13.8001 2.07814L18.2499 6.52792C18.8224 7.10046 19.7666 6.87948 19.7666 5.99554ZM4.43848 17.1652L17.1751 4.42858L15.8994 3.16296L3.16281 15.8996L4.43848 17.1652ZM0.571289 14.3426V18.8426C0.571289 19.375 0.922851 19.7667 1.48535 19.7667H5.99539C6.87933 19.7667 7.11035 18.8326 6.52776 18.25L2.07798 13.8002C1.51548 13.2377 0.571289 13.4486 0.571289 14.3426Z" fill="#9EFF00"/>
</svg>