<svg xmlns="http://www.w3.org/2000/svg" width="22" height="20" viewBox="0 0 22 20" fill="none">
  <g clip-path="url(#clip0_92_59505)">
    <path d="M3.27525 15.9196L4.08887 17.3058L11.2507 13.7098L18.4125 17.3058L19.2262 15.9196L12.0643 12.3236V3.84596H10.4472V12.3236L3.27525 15.9196ZM0.733956 17.356C0.733956 17.7678 0.904715 18.0692 1.26632 18.27L3.27525 19.4453C3.53641 19.606 3.71722 19.6362 4.06878 19.4352L6.02748 18.3002C6.38909 18.0993 6.4594 17.9286 6.44936 17.5971L6.4594 15.2667C6.4594 14.865 6.2786 14.5736 5.93708 14.3728L3.91811 13.1976C3.65694 13.0569 3.43596 13.0067 3.09444 13.1976L1.10561 14.3526C0.76409 14.5435 0.713867 14.7444 0.713867 15.0257L0.733956 17.356ZM15.9918 17.6071C15.9817 17.9386 16.052 18.1093 16.4136 18.3102L18.3724 19.4453C18.7239 19.6462 18.9048 19.6161 19.1658 19.4553L21.1748 18.2802C21.5364 18.0792 21.7072 17.7779 21.7072 17.3661L21.7272 15.0357C21.7272 14.7545 21.677 14.5536 21.3355 14.3627L19.3467 13.2076C19.0051 13.0167 18.7842 13.0669 18.523 13.2076L16.5041 14.3828C16.1625 14.5837 15.9817 14.875 15.9817 15.2767L15.9918 17.6071ZM8.68932 5.5636L10.7184 6.72877C11.0598 6.91962 11.3913 6.91962 11.7329 6.72877L13.7619 5.5636C14.0431 5.40289 14.1636 5.25222 14.1636 4.84039V2.57029C14.1636 2.16851 14.0431 2.02789 13.782 1.87722L11.7529 0.722081C11.3913 0.521188 11.0498 0.521188 10.6982 0.722081L8.66922 1.87722C8.41811 2.01784 8.27748 2.16851 8.27748 2.57029V4.84039C8.27748 5.25222 8.42815 5.41293 8.68932 5.5636Z" fill="#9EFF00"/>
  </g>
  <defs>
    <clipPath id="clip0_92_59505">
      <rect width="21.0134" height="19.0547" fill="white" transform="translate(0.713867 0.571411)"/>
    </clipPath>
  </defs>
</svg>