<svg xmlns="http://www.w3.org/2000/svg" width="24" height="23" viewBox="0 0 24 23" fill="none">
  <g clip-path="url(#clip0_92_59406)">
    <path d="M4.44279 20.6451C5.11744 20.6451 5.65522 20.1074 5.65522 19.4327C5.65522 18.758 5.10767 18.2203 4.44279 18.2203C3.76813 18.2203 3.23036 18.7678 3.23036 19.4327C3.23036 20.1171 3.77791 20.6451 4.44279 20.6451ZM1.3726 13.2043C2.04726 13.2043 2.58503 12.647 2.58503 11.9821C2.58503 11.2977 2.0277 10.7697 1.3726 10.7697C0.69794 10.7697 0.150391 11.3172 0.150391 11.9821C0.150391 12.6568 0.707718 13.2043 1.3726 13.2043ZM4.44279 5.76349C5.11744 5.76349 5.65522 5.21594 5.65522 4.55106C5.65522 3.86662 5.10767 3.33863 4.44279 3.33863C3.76813 3.33863 3.23036 3.8764 3.23036 4.55106C3.23036 5.22572 3.77791 5.76349 4.44279 5.76349ZM11.9422 2.63464C12.6169 2.63464 13.1547 2.08709 13.1547 1.41243C13.1547 0.73777 12.6071 0.199999 11.9422 0.199999C11.2578 0.199999 10.7298 0.747548 10.7298 1.41243C10.7298 2.09687 11.2676 2.63464 11.9422 2.63464ZM19.432 5.74394C20.1066 5.74394 20.6444 5.19639 20.6444 4.53151C20.6444 3.84707 20.0968 3.31907 19.432 3.31907C18.7475 3.31907 18.2097 3.85685 18.2097 4.53151C18.2097 5.20617 18.7573 5.74394 19.432 5.74394ZM22.5119 13.2043C23.1866 13.2043 23.7341 12.647 23.7341 11.9821C23.7341 11.2977 23.1768 10.7697 22.5119 10.7697C21.8275 10.7697 21.2897 11.3172 21.2897 11.9821C21.2897 12.6568 21.847 13.2043 22.5119 13.2043ZM19.4222 20.6549C20.0968 20.6549 20.6346 20.1171 20.6346 19.4425C20.6346 18.7678 20.087 18.23 19.4222 18.23C18.7377 18.23 18.2 18.7775 18.2 19.4425C18.2 20.1269 18.7475 20.6549 19.4222 20.6549ZM11.9422 19.1002C15.8631 19.1002 19.0506 15.9225 19.0506 11.9821C19.0506 8.30568 16.2542 5.28439 12.6658 4.92262L12.656 12.1288C12.656 12.5198 12.3138 12.8621 11.9422 12.8523C11.5121 12.8327 11.2089 12.5296 11.2089 12.1092V4.92262C7.6303 5.28439 4.82411 8.30568 4.82411 11.9821C4.82411 15.9323 8.02141 19.1002 11.9422 19.1002Z" fill="#9EFF00"/>
  </g>
  <defs>
    <clipPath id="clip0_92_59406">
      <rect width="23.5837" height="21.99" fill="white" transform="translate(0.150391 0.199999)"/>
    </clipPath>
  </defs>
</svg>