<svg xmlns="http://www.w3.org/2000/svg" width="21" height="22" viewBox="0 0 21 22" fill="none">
  <path d="M11.0308 2.9108C11.4887 2.9108 11.837 2.56242 11.837 2.10456C11.837 1.65665 11.4887 1.30827 11.0308 1.30827H3.7448L5.32742 2.9108H11.0308ZM13.8278 5.75753C14.2757 5.75753 14.634 5.3992 14.634 4.94133C14.634 4.49342 14.2757 4.155 13.8278 4.155H6.52185L8.10447 5.75753H13.8278ZM16.565 8.5943C17.0129 8.5943 17.3614 8.23597 17.3614 7.77811C17.3614 7.33019 17.0129 6.99178 16.565 6.99178H9.29893L10.8815 8.5943H16.565ZM19.3322 9.82858H12.076C12.6732 10.4357 12.9419 10.804 12.9817 11.4311H19.3322C19.78 11.4311 20.1384 11.0827 20.1384 10.6249C20.1384 10.1769 19.78 9.82858 19.3322 9.82858ZM10.125 19.6627L6.55171 11.3117L6.07394 12.1278L11.0308 12.4065C11.6977 12.4463 12.0162 11.7296 11.5385 11.2419L1.6844 1.16892C1.24645 0.721011 0.569602 0.969851 0.569602 1.59693L0.400391 15.6116C0.400391 16.2983 1.16682 16.5771 1.60478 16.0694L4.80983 12.5259L3.88415 12.2871L7.33804 20.8273C7.47739 21.1657 7.82577 21.3249 8.13433 21.1856L9.84635 20.4789C10.1649 20.3594 10.2744 19.9912 10.125 19.6627Z" fill="#9EFF00"/>
</svg>