<svg xmlns="http://www.w3.org/2000/svg" width="22" height="22" viewBox="0 0 22 22" fill="none">
  <g clip-path="url(#clip0_92_59495)">
    <path d="M2.4315 10.9598C2.4315 10.0458 2.57213 9.16184 2.83329 8.34822L1.25628 7.68527C0.91476 8.71987 0.713867 9.81475 0.713867 10.9598C0.713867 12.0948 0.91476 13.1998 1.26632 14.2344L2.83329 13.5714C2.57213 12.7578 2.4315 11.8739 2.4315 10.9598ZM7.05204 3.34599L6.40918 1.79911C4.42034 2.79353 2.78306 4.43081 1.78865 6.41965L3.35561 7.07255C4.15918 5.47546 5.46498 4.16965 7.05204 3.34599ZM10.9494 2.42189C11.8634 2.42189 12.7474 2.56251 13.581 2.83372L14.2239 1.26675C13.1893 0.915187 12.0844 0.714294 10.9494 0.714294C9.81432 0.714294 8.69936 0.915187 7.66476 1.26675L8.3277 2.83372C9.15137 2.56251 10.0353 2.42189 10.9494 2.42189ZM18.5632 7.06251L20.1201 6.41965C19.1157 4.43081 17.4784 2.79353 15.4896 1.78907L14.8467 3.34599C16.4337 4.15961 17.7496 5.46541 18.5632 7.06251ZM19.4974 10.9598C19.4974 11.8739 19.3567 12.7578 19.0956 13.5815L20.6525 14.2445C21.0041 13.2098 21.2049 12.0948 21.2049 10.9598C21.2049 9.81475 21.0041 8.70983 20.6525 7.67523L19.0855 8.33818C19.3567 9.16184 19.4974 10.0458 19.4974 10.9598ZM14.8467 18.5636L15.4896 20.1306C17.4884 19.1262 19.1257 17.4888 20.1101 15.5L18.5732 14.8572C17.7596 16.4543 16.4438 17.75 14.8467 18.5636ZM10.9594 19.4978C10.0353 19.4978 9.15137 19.3571 8.3277 19.086L7.6748 20.6529C8.7094 21.0045 9.82435 21.2053 10.9594 21.2053C12.0944 21.2053 13.1994 21.0045 14.2239 20.6629L13.571 19.096C12.7474 19.3571 11.8734 19.4978 10.9594 19.4978ZM3.35561 14.8572L1.79868 15.5C2.80315 17.4888 4.42034 19.1262 6.40918 20.1205L7.05204 18.5536C5.46498 17.74 4.15918 16.4442 3.35561 14.8572ZM10.9393 17.971C14.8467 17.971 17.9605 14.8572 17.9505 10.9598C17.9405 7.06251 14.8266 3.94867 10.9293 3.94867C7.03194 3.94867 3.9382 7.05246 3.9382 10.9598C3.9382 14.8672 7.04199 17.971 10.9393 17.971Z" fill="#9EFF00"/>
  </g>
  <defs>
    <clipPath id="clip0_92_59495">
      <rect width="20.491" height="20.5011" fill="white" transform="translate(0.713867 0.714294)"/>
    </clipPath>
  </defs>
</svg>