<svg xmlns="http://www.w3.org/2000/svg" width="19" height="24" viewBox="0 0 19 24" fill="none">
  <path d="M0.428711 20.6919C0.428711 21.4755 0.59947 21.9476 1.34278 22.3091C3.06041 23.0524 5.43095 23.5447 8.27357 23.5447C11.0861 23.5447 14.2501 23.1228 16.5202 22.0179C17.7256 21.4453 18.0169 20.9129 18.0169 19.6674V4.24888C18.0169 2.62165 17.2937 1.87835 15.7267 1.87835H14.7825V1.47657C14.7825 0.482143 14.2803 0 13.3963 0C13.095 0 12.7334 0.0703125 12.3015 0.210938C9.268 1.20536 6.49567 1.83817 2.93987 1.83817H2.1363C1.05148 1.83817 0.428711 2.47098 0.428711 3.45536V20.6919ZM3.99456 9.45197V6.05692C3.99456 5.91629 4.095 5.79576 4.23563 5.78571C6.57604 5.69531 8.66532 5.28348 10.8049 4.5C10.9254 4.44978 11.1363 4.5 11.1363 4.74107V8.28683C11.1363 8.37723 11.0861 8.46764 10.9957 8.49777C9.12734 9.26117 6.66643 9.69309 4.23563 9.69309C4.10505 9.69309 3.99456 9.61269 3.99456 9.45197ZM4.50683 21.827C8.45438 21.7165 12.1207 20.6116 14.1095 19.0948C14.5716 18.7433 14.7825 18.3817 14.7825 17.4978V3.49553H15.7368C16.1787 3.49553 16.3997 3.73661 16.3997 4.24888V19.5569C16.3997 20.1596 16.3093 20.3805 15.7368 20.6317C13.7378 21.5055 10.9254 22.0681 8.27357 22.0681C7.00795 22.0681 5.81264 21.9978 4.50683 21.827Z" fill="#9EFF00"/>
</svg>