<svg xmlns="http://www.w3.org/2000/svg" width="20" height="22" viewBox="0 0 20 22" fill="none">
  <path d="M0.400391 12.0186V13.4402C0.400391 15.3053 1.34202 16.2469 3.24339 16.2469H5.53408V14.7892H3.26149C2.35608 14.7892 1.8581 14.3003 1.8581 13.3587V12.0186H0.400391ZM1.8581 10.7783V6.66768H0.400391V10.7783H1.8581ZM1.8581 5.43631V4.35888C1.8581 3.41725 2.35608 2.92833 3.26149 2.92833H4.57434V1.47061H3.24339C1.34202 1.47061 0.400391 2.41224 0.400391 4.27739V5.43631H1.8581ZM9.91626 1.47061H5.8057V2.92833H9.91626V1.47061ZM11.1477 2.92833H12.3066C13.2029 2.92833 13.71 3.41725 13.71 4.35888V6.34173H15.1677V4.27739C15.1677 2.41224 14.217 1.47061 12.3337 1.47061H11.1477V2.92833ZM19.5589 15.4773V8.46946C19.5589 6.6043 18.6082 5.66267 16.725 5.66267H7.63463C5.73326 5.66267 4.79164 6.59524 4.79164 8.46946V17.6322C4.79164 19.4973 5.73326 20.439 7.63463 20.439H12.1979V18.9813H7.65274C6.75638 18.9813 6.24935 18.4923 6.24935 17.5507V8.55097C6.24935 7.6093 6.75638 7.12038 7.65274 7.12038H16.6978C17.5942 7.12038 18.1012 7.6093 18.1012 8.55097V14.0106L19.5589 15.4773ZM13.0128 18.8002C13.0037 19.1533 13.4202 19.2619 13.6465 19.0447L15.0318 17.6594L16.5801 21.4802C16.6526 21.6523 16.8336 21.7338 16.9966 21.6703L17.902 21.3082C18.056 21.2357 18.1283 21.0456 18.0378 20.8736L16.4172 17.1071L18.3728 17.0346C18.7078 17.0165 18.8799 16.6815 18.6354 16.428L13.6828 11.3396C13.4564 11.1042 13.1033 11.24 13.0943 11.575L13.0128 18.8002Z" fill="#9EFF00"/>
</svg>