<svg xmlns="http://www.w3.org/2000/svg" width="15" height="22" viewBox="0 0 15 22" fill="none">
  <g clip-path="url(#clip0_92_59411)">
    <path d="M1.01117 21.572C1.54293 21.572 1.80315 21.2892 1.89366 20.8253L4.13382 9.42085L3.00243 10.3373H11.4427L10.3112 9.42085L12.5514 20.8253C12.6419 21.2892 12.9021 21.572 13.4339 21.572C14.1919 21.572 14.4522 21.0516 14.3276 20.4406L12.2119 9.66975C12.0762 8.95698 11.4765 8.43654 10.7864 8.43654H3.66995C2.9798 8.43654 2.38016 8.95698 2.24439 9.66975L0.128687 20.4406C0.00423327 21.0516 0.275767 21.572 1.01117 21.572ZM3.42104 9.35297H11.0353L8.21815 0.946717C8.04844 0.471531 7.73165 0.199997 7.24515 0.199997C6.73603 0.199997 6.3853 0.471531 6.22689 0.946717L3.42104 9.35297Z" fill="#9EFF00"/>
  </g>
  <defs>
    <clipPath id="clip0_92_59411">
      <rect width="14.2578" height="21.372" fill="white" transform="translate(0.0996094 0.199997)"/>
    </clipPath>
  </defs>
</svg>