<svg xmlns="http://www.w3.org/2000/svg" width="23" height="17" viewBox="0 0 23 17" fill="none">
  <path d="M0.0498047 11.8725C0.0498047 12.0541 0.140609 12.2688 0.280944 12.4091L3.92138 16.1403C4.07823 16.3055 4.26809 16.388 4.47446 16.388C4.67258 16.388 4.86245 16.3055 5.01929 16.1403L8.668 12.4091C8.80832 12.2688 8.89088 12.0541 8.89088 11.8725C8.89088 11.435 8.59369 11.1461 8.16441 11.1461C7.94977 11.1461 7.78473 11.2121 7.66089 11.3442L6.46391 12.6072L5.12661 14.1427L5.20916 12.2357V4.35226L5.12661 2.44536L6.46391 3.98079L7.66089 5.2438C7.78473 5.37587 7.94977 5.44192 8.16441 5.44192C8.59369 5.44192 8.89088 5.15299 8.89088 4.71548C8.89088 4.53386 8.80832 4.31924 8.668 4.17891L5.01929 0.447661C4.86245 0.282562 4.67258 0.200012 4.47446 0.200012C4.26809 0.200012 4.07823 0.282562 3.92138 0.447661L0.280944 4.17891C0.140609 4.31924 0.0498047 4.53386 0.0498047 4.71548C0.0498047 5.15299 0.346983 5.44192 0.776241 5.44192C0.990872 5.44192 1.16422 5.36762 1.27979 5.2438L2.48502 3.98079L3.81407 2.44536L3.73152 4.35226V12.2357L3.81407 14.1427L2.48502 12.6072L1.27979 11.3442C1.16422 11.2204 0.990872 11.1461 0.776241 11.1461C0.346983 11.1461 0.0498047 11.435 0.0498047 11.8725ZM10.5006 6.11056C10.5006 6.34996 10.6822 6.53982 10.9381 6.57284C14.8262 7.01036 15.3958 7.55518 15.9158 11.5671C15.9571 11.8148 16.147 11.9799 16.3699 11.9799C16.601 11.9799 16.7908 11.8148 16.8321 11.5671C17.3522 7.55518 17.9136 7.01036 21.8016 6.57284C22.0658 6.53982 22.2391 6.34996 22.2391 6.11056C22.2391 5.87117 22.0658 5.68131 21.8016 5.64829C17.9218 5.21077 17.3522 4.65769 16.8321 0.654035C16.7908 0.414642 16.6092 0.249542 16.3699 0.249542C16.1387 0.249542 15.9571 0.414642 15.9158 0.654035C15.3628 4.63293 14.8345 5.12822 10.9381 5.64829C10.6822 5.68131 10.5006 5.87117 10.5006 6.11056ZM9.7164 13.3007C9.7164 13.4657 9.83192 13.606 10.0135 13.6473C12.1185 14.0436 12.1598 14.0188 12.3992 16C12.4322 16.1899 12.5643 16.3302 12.7459 16.3302C12.9358 16.3302 13.0679 16.1981 13.1009 16.0083C13.365 13.9363 13.4558 13.9363 15.4701 13.6473C15.66 13.6143 15.7837 13.474 15.7837 13.3007C15.7837 13.1355 15.6682 12.9869 15.4783 12.9539C13.4311 12.5577 13.3733 12.6072 13.1009 10.5848C13.0679 10.4032 12.9275 10.2711 12.7459 10.2711C12.5643 10.2711 12.4322 10.4114 12.3992 10.6012C12.1598 12.5824 12.1103 12.6155 10.0466 12.9539C9.84016 12.9869 9.7164 13.119 9.7164 13.3007Z" fill="#9EFF00"/>
</svg>