<svg xmlns="http://www.w3.org/2000/svg" width="17" height="23" viewBox="0 0 17 23" fill="none">
  <path d="M5.62637 18.7086H14.2799C15.9568 18.7086 16.7953 17.862 16.7953 16.1524V6.27785C16.7953 4.57646 15.9568 3.7217 14.2799 3.7217H6.48928L7.82436 5.03234H14.2066C15.0532 5.03234 15.4847 5.48007 15.4847 6.29414V16.1362C15.4847 16.9502 15.0532 17.3979 14.2147 17.3979H5.6915C4.85301 17.3979 4.41342 16.9502 4.41342 16.1362V10.3237H3.10278V16.1524C3.10278 17.862 3.9494 18.7086 5.62637 18.7086ZM6.86375 8.52469H12.8553C13.1402 8.52469 13.36 8.3049 13.36 8.01995C13.36 7.74319 13.1402 7.5234 12.8553 7.5234H6.86375C6.56255 7.5234 6.35089 7.74319 6.35089 8.01995C6.35089 8.3049 6.56255 8.52469 6.86375 8.52469ZM6.86375 11.7158H12.8553C13.1402 11.7158 13.36 11.4879 13.36 11.2029C13.36 10.9262 13.1402 10.7145 12.8553 10.7145H6.86375C6.56255 10.7145 6.35089 10.9262 6.35089 11.2029C6.35089 11.4879 6.56255 11.7158 6.86375 11.7158ZM6.86375 14.8987H12.8553C13.1402 14.8987 13.36 14.6872 13.36 14.4103C13.36 14.1254 13.1402 13.8975 12.8553 13.8975H6.86375C6.56255 13.8975 6.35089 14.1254 6.35089 14.4103C6.35089 14.6872 6.56255 14.8987 6.86375 14.8987ZM0.750131 7.01865C0.74199 7.32799 1.11646 7.43386 1.31997 7.23032L2.56549 5.9848L3.95754 9.42012C4.02267 9.57482 4.18548 9.64811 4.33201 9.59107L5.14607 9.26548C5.28446 9.20033 5.34145 9.02937 5.26818 8.87473L3.81101 5.49635L5.56125 5.42309C5.87059 5.4068 6.02526 5.11375 5.80546 4.87767L1.35254 0.302634C1.14902 0.099118 0.831537 0.213087 0.823396 0.51429L0.750131 7.01865Z" fill="#9EFF00"/>
</svg>