<svg xmlns="http://www.w3.org/2000/svg" width="26" height="18" viewBox="0 0 26 18" fill="none">
  <path d="M10.2124 15.9758H19.4569C20.6116 15.9758 21.0234 15.6502 21.0234 15.0133C21.0234 13.146 18.648 10.5695 14.831 10.5695C11.0213 10.5695 8.64586 13.146 8.64586 15.0133C8.64586 15.6502 9.05768 15.9758 10.2124 15.9758ZM14.8383 9.274C16.4196 9.274 17.7801 7.88442 17.7801 6.07509C17.7801 4.28745 16.4122 2.96301 14.8383 2.96301C13.2644 2.96301 11.8965 4.31641 11.8965 6.08956C11.8965 7.88442 13.2571 9.274 14.8383 9.274ZM2.26949 15.9758H7.85894C7.09404 14.883 8.02807 12.6829 9.60927 11.4815C8.79291 10.9459 7.7412 10.5478 6.36594 10.5478C3.04907 10.5478 0.975098 12.9579 0.975098 14.9626C0.975098 15.614 1.34282 15.9758 2.26949 15.9758ZM6.3733 9.4405C7.7412 9.4405 8.93267 8.22459 8.93267 6.65408C8.93267 5.09804 7.73386 3.9473 6.3733 3.9473C5.00536 3.9473 3.79922 5.12699 3.80658 6.66856C3.80658 8.22459 4.99801 9.4405 6.3733 9.4405ZM20.2806 9.05692C20.5307 9.22336 20.8763 9.17271 21.0749 8.89041C21.6412 8.15943 21.9796 7.08112 21.9796 5.97377C21.9796 4.86645 21.6412 3.79531 21.0749 3.0571C20.8763 2.77484 20.5307 2.72418 20.2806 2.89064C19.9865 3.09329 19.935 3.45516 20.1703 3.75189C20.5969 4.33088 20.8396 5.13423 20.8396 5.97377C20.8396 6.81331 20.5895 7.60941 20.1703 8.19562C19.9424 8.4996 19.9865 8.847 20.2806 9.05692ZM23.0092 10.9459C23.2813 11.1268 23.6196 11.0617 23.8181 10.7867C24.7595 9.51288 25.3111 7.7614 25.3111 5.97377C25.3111 4.18613 24.7669 2.42021 23.8181 1.1609C23.6196 0.885882 23.2813 0.820745 23.0092 1.00168C22.7371 1.18261 22.6929 1.52277 22.9062 1.81951C23.7079 2.93407 24.1712 4.4322 24.1712 5.97377C24.1712 7.51535 23.6931 9.00621 22.9062 10.128C22.7003 10.4248 22.7371 10.7649 23.0092 10.9459Z" fill="#9EFF00"/>
</svg>