<svg xmlns="http://www.w3.org/2000/svg" width="21" height="24" viewBox="0 0 21 24" fill="none">
  <path d="M10.2361 23.9821C13.9312 23.9821 16.9124 21.0008 16.9124 17.3163C16.9124 13.6212 13.9312 10.64 10.2361 10.64C6.5515 10.64 3.57025 13.6212 3.57025 17.3163C3.57025 21.0008 6.5515 23.9821 10.2361 23.9821ZM8.33604 20.7489C7.93715 21.0428 7.51725 20.7384 7.67471 20.2765L8.43052 18.0195L6.49901 16.6444C6.13161 16.3715 6.24707 15.8571 6.75094 15.8571L9.12335 15.8781L9.84768 13.6107C9.99459 13.1488 10.4985 13.1488 10.6455 13.6107L11.3698 15.8781L13.7421 15.8571C14.246 15.8571 14.351 16.382 13.9941 16.6339L12.0626 18.0195L12.8184 20.2765C12.9759 20.7384 12.556 21.0428 12.1571 20.7489L10.2466 19.3527L8.33604 20.7489ZM3.84318 12.3195C4.87192 11.0178 6.28906 10.0311 7.91615 9.5482L3.16085 1.00337L0.40005 5.21281C0.211098 5.48574 0.200601 5.79017 0.368558 6.06309L3.84318 12.3195ZM7.88466 5.96861H12.598L15.7996 0.300049H4.68297L7.88466 5.96861ZM12.5664 9.5482C14.2041 10.0311 15.6107 11.0178 16.6394 12.3195L20.1245 6.06309C20.282 5.79017 20.2715 5.48574 20.0826 5.21281L17.3217 1.00337L12.5664 9.5482Z" fill="#9EFF00"/>
</svg>