<svg xmlns="http://www.w3.org/2000/svg" width="24" height="20" viewBox="0 0 24 20" fill="none">
  <path d="M4.74455 15.0844L5.01051 16.1482C5.34739 17.5313 6.08322 18.2405 7.54599 18.2405H17.0939C18.5656 18.2405 19.2925 17.549 19.6383 16.1482L19.9043 15.0844H4.74455ZM4.452 13.8698H20.2057L21.8723 7.04357L21.1454 6.6269L17.0585 9.60564C16.757 9.81845 16.5532 9.73863 16.3847 9.49927L12.5372 3.68362L12.1116 3.66588L8.22862 9.52583C8.07792 9.75634 7.90061 9.8273 7.59918 9.61449L3.59206 6.68895L2.74099 6.91059L4.452 13.8698ZM3.06901 8.8166C4.23923 8.8166 5.17895 7.86805 5.17895 6.68895C5.17895 5.53647 4.23923 4.57901 3.06901 4.57901C1.89879 4.57901 0.950195 5.5276 0.950195 6.68895C0.950195 7.86805 1.90765 8.8166 3.06901 8.8166ZM12.3244 5.12866C13.4858 5.12866 14.4343 4.18007 14.4343 3.00985C14.4343 1.85735 13.4858 0.899902 12.3244 0.899902C11.1453 0.899902 10.2056 1.84849 10.2056 3.00985C10.2056 4.18007 11.1542 5.12866 12.3244 5.12866ZM21.5709 8.8166C22.7323 8.8166 23.6897 7.86805 23.6897 6.68895C23.6897 5.5276 22.7412 4.57901 21.5709 4.57901C20.4096 4.57901 19.461 5.53647 19.461 6.68895C19.461 7.86805 20.4096 8.8166 21.5709 8.8166Z" fill="#9EFF00"/>
</svg>