<svg xmlns="http://www.w3.org/2000/svg" width="19" height="23" viewBox="0 0 19 23" fill="none">
  <path d="M9.76419 22.829C9.93757 22.829 10.2085 22.7639 10.4794 22.623C16.6453 19.3937 18.6285 17.7791 18.6285 13.8888V5.71803C18.6285 4.60187 18.1516 4.24426 17.2414 3.86498C15.9735 3.34483 11.9207 1.87106 10.6636 1.4376C10.371 1.34007 10.0676 1.28589 9.76419 1.28589C9.46076 1.28589 9.15734 1.35091 8.87559 1.4376C7.60772 1.84939 3.55485 3.35566 2.28698 3.86498C1.38755 4.23342 0.899902 4.60187 0.899902 5.71803V13.8888C0.899902 17.7791 2.99135 19.2095 9.04897 22.623C9.33073 22.7748 9.5908 22.829 9.76419 22.829ZM4.87691 12.415C4.87691 12.285 4.94193 12.1224 5.06113 11.9816L11.1838 4.29844C11.6497 3.71327 12.43 4.10339 12.1483 4.82943L10.1326 10.2477H13.9146C14.2071 10.2477 14.4239 10.4536 14.4239 10.7462C14.4239 10.8762 14.3589 11.0388 14.2397 11.1796L8.11703 18.8628C7.65106 19.4479 6.88167 19.0578 7.15258 18.3426L9.17901 12.9135H5.38622C5.10448 12.9135 4.87691 12.7076 4.87691 12.415Z" fill="#9EFF00"/>
</svg>